<svg width="152" height="32" viewBox="0 0 152 32" fill="none" xmlns="http://www.w3.org/2000/svg">
<path d="M89 22.1228C88.0973 22.716 86.8851 22.9997 85.3634 22.9997C83.429 22.9997 81.8816 22.2776 80.6952 20.8591C79.3798 19.3116 78.7092 17.1193 78.7092 14.3339C78.7092 11.5226 79.3798 9.35613 80.6952 7.80865C81.8816 6.39013 83.4548 5.66797 85.3634 5.66797C86.8593 5.66797 88.0715 5.95167 89 6.54487L88.1488 8.65976C87.5041 8.19552 86.6787 7.9634 85.6471 7.9634C84.4091 7.9634 83.4032 8.47922 82.6553 9.51088C81.8558 10.6457 81.4431 12.2448 81.4431 14.3081C81.4431 16.3714 81.8558 17.9704 82.6553 19.0795C83.4032 20.1369 84.4091 20.6527 85.6471 20.6527C86.6787 20.6527 87.5041 20.4206 88.1488 19.9822L89 22.1228Z" fill="#100A0A"/>
<path d="M99.8839 22.1227C98.7748 22.7159 97.279 22.9996 95.3704 22.9996C91.7596 22.9996 89.9542 21.6843 89.9542 19.0793C89.9542 17.5061 90.728 16.3713 92.2754 15.6749C93.4103 15.1849 95.1383 14.8754 97.4595 14.7464V13.9469C97.4595 12.5284 96.5826 11.8062 94.803 11.8062C93.565 11.8062 92.4302 12.0641 91.347 12.5799L90.7022 10.8261C92.0433 10.2329 93.4876 9.94922 95.0867 9.94922C98.2848 9.94922 99.9097 11.3677 99.9097 14.2048V22.1227H99.8839ZM97.4595 16.4486C95.7831 16.5518 94.6224 16.7065 93.9519 16.9645C92.8944 17.3513 92.3528 18.0477 92.3528 19.0278C92.3528 20.4463 93.3329 21.1684 95.3188 21.1684C96.2989 21.1684 97.021 21.0653 97.4853 20.8332V16.4486H97.4595Z" fill="#100A0A"/>
<path d="M116.597 22.7676V14.2822C116.597 13.5601 116.39 13.0185 115.952 12.6058C115.513 12.2189 114.946 12.0126 114.198 12.0126C113.192 12.0126 112.418 12.2963 111.903 12.8379V22.7418H109.349V14.0501C109.349 13.4311 109.117 12.9411 108.653 12.5542C108.189 12.1932 107.57 12.0126 106.796 12.0126C105.945 12.0126 105.223 12.1416 104.655 12.3737V22.7418H102.102V10.852C103.52 10.2588 105.042 9.9751 106.615 9.9751C108.421 9.9751 109.736 10.4136 110.613 11.3162C111.67 10.4136 113.063 9.9751 114.765 9.9751C116.107 9.9751 117.164 10.3362 117.963 11.0583C118.737 11.7805 119.124 12.7606 119.124 14.0243V22.7676H116.597Z" fill="#100A0A"/>
<path d="M131.736 16.4228L123.406 17.5835C123.663 19.8531 124.953 20.9879 127.248 20.9879C128.615 20.9879 129.776 20.73 130.705 20.2142L131.452 22.1227C130.318 22.7159 128.873 22.9996 127.068 22.9996C125.108 22.9996 123.586 22.4064 122.503 21.22C121.445 20.0852 120.904 18.4861 120.904 16.4486C120.904 14.5143 121.42 12.941 122.425 11.7546C123.457 10.5424 124.824 9.94922 126.578 9.94922C128.203 9.94922 129.467 10.4393 130.395 11.4451C131.298 12.4252 131.762 13.7663 131.762 15.4686C131.762 15.907 131.736 16.2165 131.736 16.4228ZM129.312 15.0817C129.286 12.9152 128.358 11.832 126.526 11.832C125.546 11.832 124.747 12.1931 124.179 12.8894C123.586 13.6116 123.277 14.6174 123.251 15.907L129.312 15.0817Z" fill="#100A0A"/>
<path d="M139.293 12.1674C138.932 12.0642 138.494 12.0384 138.003 12.0384C137.204 12.0384 136.533 12.1416 136.018 12.3737V22.7676H133.49V10.852C134.883 10.2588 136.508 9.9751 138.365 9.9751C138.984 9.9751 139.448 10.0009 139.783 10.0783L139.293 12.1674Z" fill="#100A0A"/>
<path d="M150.383 22.1227C149.274 22.7159 147.778 22.9996 145.87 22.9996C142.259 22.9996 140.454 21.6843 140.454 19.0793C140.454 17.5061 141.227 16.3713 142.775 15.6749C143.91 15.1849 145.638 14.8754 147.959 14.7464V13.9469C147.959 12.5284 147.082 11.8062 145.302 11.8062C144.064 11.8062 142.93 12.0641 141.846 12.5799L141.202 10.8261C142.543 10.2329 143.987 9.94922 145.586 9.94922C148.784 9.94922 150.409 11.3677 150.409 14.2048V22.1227H150.383ZM147.959 16.4486C146.282 16.5518 145.122 16.7065 144.451 16.9645C143.394 17.3513 142.852 18.0477 142.852 19.0278C142.852 20.4463 143.832 21.1684 145.818 21.1684C146.798 21.1684 147.52 21.0653 147.985 20.8332V16.4486H147.959Z" fill="#100A0A"/>
<path d="M6.6483 2.34115C5.61665 3.19226 4.94607 4.24971 4.76553 5.10082L1 22.7679H1.23212C2.44431 22.7679 3.60492 22.3294 4.63658 21.4783C5.66823 20.6272 6.3388 19.5698 6.57093 18.3576L7.5252 13.8699H15.9332C17.1454 13.8699 18.306 13.4314 19.3376 12.5803C20.3951 11.7292 21.0399 10.6717 21.2978 9.45955L21.3494 9.22743H8.53107L9.27901 5.66823H21.4267C22.6389 5.66823 23.7995 5.22978 24.8312 4.37866C25.8628 3.52755 26.5076 2.44431 26.7655 1.23212L26.8171 1H10.0528C8.81477 1.02579 7.67995 1.46424 6.6483 2.34115Z" fill="#100A0A"/>
<path d="M74.5568 2.08301C73.8863 1.41244 73.0094 1.07715 71.9261 1.07715H55.1618V1.20611C55.0844 1.54139 55.0586 1.8251 55.0586 2.13459C55.0586 3.16625 55.3939 4.01736 56.0902 4.68793C56.7608 5.35851 57.6377 5.6938 58.6952 5.6938H62.306L58.6694 22.7419H58.9015C60.1137 22.7419 61.2485 22.3034 62.306 21.4523C63.3376 20.6012 63.9824 19.5437 64.2403 18.3315L66.9226 5.668H75.4337L75.4595 5.51326C75.5111 5.20376 75.5627 4.89426 75.5627 4.55898C75.5627 3.6047 75.2274 2.75358 74.5568 2.08301Z" fill="#100A0A"/>
<path d="M47.347 1.05167H36.0246V1.02588H31.3822L26.7397 22.768H26.9719C28.1841 22.768 29.3447 22.3295 30.3763 21.4784C31.408 20.6273 32.0528 19.5698 32.3107 18.3576L33.2649 13.8958H44.6905C45.9027 13.8958 47.0633 13.4573 48.095 12.6062C49.1266 11.7551 49.7972 10.6976 50.0809 9.45964L50.932 5.53936C50.9836 5.22986 51.0352 4.92037 51.0352 4.58508C51.0352 3.57922 50.6999 2.72811 50.0035 2.05753C49.2814 1.38696 48.4045 1.05167 47.347 1.05167ZM35.0188 5.69411H46.238L45.4642 9.25331H34.245L35.0188 5.69411Z" fill="#100A0A"/>
</svg>
