<svg width="28" height="28" viewBox="0 0 28 28" fill="none" xmlns="http://www.w3.org/2000/svg">
<path fill-rule="evenodd" clip-rule="evenodd" d="M14.3734 11.4748L14.4094 12.0688L13.809 11.9961C11.6238 11.7173 9.71467 10.7718 8.09373 9.18381L7.30127 8.39589L7.09715 8.97774C6.6649 10.2748 6.94106 11.6445 7.84158 12.5658C8.32186 13.0749 8.2138 13.1476 7.38531 12.8446C7.09715 12.7476 6.845 12.6749 6.82099 12.7113C6.73694 12.7961 7.02511 13.8992 7.25324 14.3356C7.56542 14.9417 8.20179 15.5356 8.89819 15.8872L9.48653 16.166L8.79013 16.1781C8.11774 16.1781 8.09373 16.1902 8.16577 16.4448C8.40591 17.2327 9.35446 18.0691 10.4111 18.4327L11.1555 18.6873L10.5071 19.0752C9.54657 19.6328 8.41791 19.948 7.28926 19.9722C6.74895 19.9843 6.30469 20.0328 6.30469 20.0692C6.30469 20.1904 7.76954 20.8692 8.62203 21.1359C11.1795 21.9238 14.2173 21.5844 16.4986 20.2389C18.1195 19.2813 19.7405 17.3781 20.4969 15.5356C20.9052 14.5538 21.3134 12.7597 21.3134 11.8991C21.3134 11.3415 21.3494 11.2688 22.0218 10.6021C22.418 10.2142 22.7903 9.7899 22.8623 9.66868C22.9824 9.43837 22.9704 9.43837 22.358 9.64444C21.3374 10.0081 21.1933 9.9596 21.6976 9.41412C22.0698 9.02623 22.5141 8.32316 22.5141 8.11709C22.5141 8.08073 22.334 8.14134 22.1299 8.25043C21.9137 8.37165 21.4335 8.55348 21.0733 8.66257L20.4249 8.86864L19.8365 8.46862C19.5124 8.25043 19.0561 8.008 18.8159 7.93526C18.2036 7.76556 17.267 7.7898 16.7147 7.98375C15.2139 8.52923 14.2653 9.93536 14.3734 11.4748Z" fill="#100A0A"/>
</svg>
