<svg width="28" height="28" viewBox="0 0 28 28" fill="none" xmlns="http://www.w3.org/2000/svg">
<g clip-path="url(#clip0_1427_5048)">
<path d="M13.9993 7.42338C16.1424 7.42338 16.3962 7.43278 17.239 7.47038C18.0223 7.50484 18.4453 7.63643 18.7273 7.74609C19.1001 7.89022 19.3695 8.06567 19.6484 8.34452C19.9304 8.62651 20.1027 8.89282 20.2468 9.26567C20.3565 9.54765 20.4881 9.97375 20.5225 10.7539C20.5601 11.5999 20.5695 11.8536 20.5695 13.9936C20.5695 16.1366 20.5601 16.3904 20.5225 17.2332C20.4881 18.0165 20.3565 18.4395 20.2468 18.7215C20.1027 19.0943 19.9272 19.3638 19.6484 19.6426C19.3664 19.9246 19.1001 20.0969 18.7273 20.241C18.4453 20.3507 18.0192 20.4823 17.239 20.5168C16.3931 20.5544 16.1393 20.5638 13.9993 20.5638C11.8563 20.5638 11.6025 20.5544 10.7597 20.5168C9.9764 20.4823 9.55343 20.3507 9.27144 20.241C8.8986 20.0969 8.62915 19.9215 8.3503 19.6426C8.06832 19.3606 7.896 19.0943 7.75187 18.7215C7.64221 18.4395 7.51062 18.0134 7.47616 17.2332C7.43856 16.3873 7.42916 16.1335 7.42916 13.9936C7.42916 11.8505 7.43856 11.5967 7.47616 10.7539C7.51062 9.97062 7.64221 9.54765 7.75187 9.26567C7.896 8.89282 8.07145 8.62337 8.3503 8.34452C8.63228 8.06254 8.8986 7.89022 9.27144 7.74609C9.55343 7.63643 9.97953 7.50484 10.7597 7.47038C11.6025 7.43278 11.8563 7.42338 13.9993 7.42338ZM13.9993 5.979C11.8218 5.979 11.5492 5.9884 10.6939 6.026C9.84168 6.0636 9.25578 6.20146 8.74821 6.39884C8.21871 6.60563 7.77067 6.87821 7.32577 7.32625C6.87773 7.77116 6.60514 8.2192 6.39836 8.74556C6.20097 9.25627 6.06311 9.83903 6.02551 10.6912C5.98792 11.5497 5.97852 11.8223 5.97852 13.9998C5.97852 16.1774 5.98792 16.45 6.02551 17.3053C6.06311 18.1575 6.20097 18.7434 6.39836 19.251C6.60514 19.7805 6.87773 20.2285 7.32577 20.6734C7.77067 21.1183 8.21871 21.394 8.74508 21.5977C9.25578 21.7951 9.83854 21.9329 10.6908 21.9705C11.5461 22.0081 11.8187 22.0175 13.9962 22.0175C16.1737 22.0175 16.4463 22.0081 17.3017 21.9705C18.1539 21.9329 18.7398 21.7951 19.2474 21.5977C19.7737 21.394 20.2218 21.1183 20.6667 20.6734C21.1116 20.2285 21.3873 19.7805 21.5909 19.2541C21.7883 18.7434 21.9262 18.1606 21.9638 17.3084C22.0014 16.4531 22.0108 16.1805 22.0108 14.003C22.0108 11.8254 22.0014 11.5529 21.9638 10.6975C21.9262 9.8453 21.7883 9.2594 21.5909 8.75183C21.3936 8.2192 21.121 7.77116 20.6729 7.32625C20.228 6.88135 19.78 6.60563 19.2536 6.40198C18.7429 6.20459 18.1602 6.06673 17.3079 6.02913C16.4495 5.9884 16.1769 5.979 13.9993 5.979Z" fill="#100A0A"/>
<path d="M13.999 9.87976C11.7243 9.87976 9.87891 11.7252 9.87891 13.9998C9.87891 16.2745 11.7243 18.1199 13.999 18.1199C16.2736 18.1199 18.1191 16.2745 18.1191 13.9998C18.1191 11.7252 16.2736 9.87976 13.999 9.87976ZM13.999 16.6724C12.5233 16.6724 11.3264 15.4755 11.3264 13.9998C11.3264 12.5241 12.5233 11.3273 13.999 11.3273C15.4747 11.3273 16.6715 12.5241 16.6715 13.9998C16.6715 15.4755 15.4747 16.6724 13.999 16.6724Z" fill="#100A0A"/>
<path d="M19.2441 9.71685C19.2441 10.2495 18.8117 10.6787 18.2822 10.6787C17.7496 10.6787 17.3203 10.2464 17.3203 9.71685C17.3203 9.18422 17.7527 8.75497 18.2822 8.75497C18.8117 8.75497 19.2441 9.18735 19.2441 9.71685Z" fill="#100A0A"/>
</g>
<defs>
<clipPath id="clip0_1427_5048">
<rect width="16.0417" height="16.0417" fill="white" transform="translate(5.97852 5.979)"/>
</clipPath>
</defs>
</svg>
