<svg width="28" height="28" viewBox="0 0 28 28" fill="none" xmlns="http://www.w3.org/2000/svg">
<path d="M22.7842 9.55811C22.5747 8.76318 21.957 8.14282 21.1621 7.92529C19.7334 7.54126 13.9998 7.54126 13.9998 7.54126C13.9998 7.54126 8.26611 7.54126 6.8374 7.92529C6.04517 8.14014 5.42749 8.76318 5.21533 9.55811C4.83398 10.9976 4.83398 14 4.83398 14C4.83398 14 4.83398 17.0024 5.21802 18.4419C5.43018 19.2368 6.04517 19.8572 6.84009 20.0747C8.2688 20.4587 14.0024 20.4587 14.0024 20.4587C14.0024 20.4587 19.7361 20.4587 21.1648 20.0747C21.957 19.8599 22.5747 19.2368 22.7869 18.4419C23.1709 17.0024 23.1709 14 23.1709 14C23.1709 14 23.1655 10.9976 22.7842 9.55811ZM12.1252 16.7258V11.2742L16.9163 14L12.1252 16.7258Z" fill="#100A0A"/>
</svg>
